<svg width="98" height="131" fill="none" xmlns="http://www.w3.org/2000/svg"><path d="M24.879 92.418c-2.285-2.285-1.27-1.524-6.348-3.047-2.539-.508-4.57-1.777-6.601-3.3L.504 114.253c-1.27 2.793 1.016 5.84 3.808 5.586l13.457-.508 9.141 9.648c2.031 2.286 5.586 1.524 6.602-1.015l13.457-32.5c-2.793 1.523-5.84 2.285-9.14 2.285-4.825 0-9.65-1.777-12.95-5.332zm72.363 21.836L85.816 86.07c-2.03 1.524-4.062 2.793-6.347 3.301-5.586 1.523-4.317.762-6.602 3.047-3.3 3.555-8.125 5.332-12.949 5.332-3.3 0-6.348-.762-9.14-2.285l13.456 32.5c1.016 2.539 4.57 3.301 6.602 1.015l9.14-9.648 13.458.508c2.793.254 5.078-2.793 3.808-5.586zM67.027 86.578c3.809-3.809 4.317-3.555 9.649-5.078 3.555-.762 6.347-3.555 7.363-7.363 1.777-7.11 1.27-6.348 6.602-11.426 2.539-2.793 3.554-6.602 2.539-10.156-1.778-7.11-1.778-6.094 0-13.457 1.015-3.555 0-7.364-2.54-9.903-5.331-5.332-4.824-4.57-6.6-11.68a10.74 10.74 0 00-7.364-7.363c-7.11-2.03-6.094-1.523-11.426-6.855-2.54-2.54-6.348-3.555-9.902-2.54-6.856 1.778-6.094 1.778-12.95 0-3.554-1.015-7.363 0-9.902 2.54-5.332 5.332-4.316 4.824-11.426 6.855a10.74 10.74 0 00-7.363 7.364c-1.777 7.109-1.27 6.347-6.602 11.68-2.539 2.538-3.554 6.347-2.539 9.902 1.778 7.363 1.778 6.347 0 13.457-1.015 3.554 0 7.363 2.54 10.156 5.332 5.078 4.824 4.316 6.601 11.426 1.016 3.808 3.809 6.601 7.363 7.363 5.586 1.523 6.094 1.27 9.903 5.078 3.3 3.555 8.379 4.063 12.441 1.524 1.523-1.016 3.555-1.524 5.332-1.524 2.031 0 4.063.508 5.586 1.524 4.063 2.539 9.14 2.03 12.695-1.524zM24.88 44.938c0-13.458 10.664-24.376 24.121-24.376 13.203 0 23.867 10.918 23.867 24.375 0 13.458-10.664 24.376-23.867 24.376-13.457 0-24.121-10.919-24.121-24.376z" fill="#1F1915"/></svg>