<svg width="24" height="24" viewBox="0 0 24 24" fill="none" xmlns="http://www.w3.org/2000/svg">
<path d="M16.125 12L22.375 5.75C23.1875 5 23.1875 3.75 22.375 3L21 1.625C20.25 0.8125 19 0.8125 18.25 1.625L12 7.875L5.6875 1.625C4.9375 0.8125 3.6875 0.8125 2.9375 1.625L1.5625 3C0.75 3.75 0.75 5 1.5625 5.75L7.8125 12L1.5625 18.3125C0.75 19.0625 0.75 20.3125 1.5625 21.0625L2.9375 22.4375C3.6875 23.25 4.9375 23.25 5.6875 22.4375L12 16.1875L18.25 22.4375C19 23.25 20.25 23.25 21 22.4375L22.375 21.0625C23.1875 20.3125 23.1875 19.0625 22.375 18.3125L16.125 12Z" fill="#FFBF50"/>
</svg>
