<svg width="52" height="250" fill="none" xmlns="http://www.w3.org/2000/svg"><path d="M12.01 176.4l-30.469 11.426c-2.783 1.026-4.541 3.662-4.541 6.592v32.959c0 2.637 1.465 5.127 3.809 6.299l30.468 15.234c2.051 1.026 4.248 1.026 6.3 0l30.468-15.234c2.344-1.172 3.808-3.662 3.808-6.299v-32.959c0-2.93-1.757-5.566-4.54-6.592L16.843 176.4c-1.464-.586-3.222-.586-4.833 0zm2.49 9.082l28.125 10.547v.147L14.5 207.602l-28.125-11.426v-.147L14.5 185.482zm4.688 52.149v-21.826l23.437-9.522v19.629l-23.438 11.719zM12.01-23.6l-30.47 11.426C-21.242-11.148-23-8.512-23-5.582v32.959c0 2.637 1.465 5.127 3.809 6.299L11.277 48.91c2.051 1.026 4.248 1.026 6.3 0l30.468-15.234c2.344-1.172 3.808-3.662 3.808-6.299V-5.582c0-2.93-1.757-5.566-4.54-6.592L16.843-23.6c-1.464-.585-3.222-.585-4.833 0zm2.49 9.082L42.625-3.97v.147L14.5 7.602-13.625-3.824v-.147L14.5-14.518zm4.688 52.149V15.805l23.437-9.522v19.63L19.187 37.63z" fill="#FFBF50" fill-opacity=".2"/></svg>