<svg width="52" height="250" viewBox="0 0 52 250" fill="none" xmlns="http://www.w3.org/2000/svg">
<path d="M12.0098 176.4L-18.459 187.826C-21.2422 188.852 -23 191.488 -23 194.418V227.377C-23 230.014 -21.5352 232.504 -19.1914 233.676L11.2773 248.91C13.3281 249.936 15.5254 249.936 17.5762 248.91L48.0449 233.676C50.3887 232.504 51.8535 230.014 51.8535 227.377V194.418C51.8535 191.488 50.0957 188.852 47.3125 187.826L16.8438 176.4C15.3789 175.814 13.6211 175.814 12.0098 176.4ZM14.5 185.482L42.625 196.029V196.176L14.5 207.602L-13.625 196.176V196.029L14.5 185.482ZM19.1875 237.631V215.805L42.625 206.283V225.912L19.1875 237.631Z" fill="#FFBF50" fill-opacity="0.2"/>
<path d="M12.0098 -23.5996L-18.459 -12.1738C-21.2422 -11.1484 -23 -8.51172 -23 -5.58203V27.377C-23 30.0137 -21.5352 32.5039 -19.1914 33.6758L11.2773 48.9102C13.3281 49.9355 15.5254 49.9355 17.5762 48.9102L48.0449 33.6758C50.3887 32.5039 51.8535 30.0137 51.8535 27.377V-5.58203C51.8535 -8.51172 50.0957 -11.1484 47.3125 -12.1738L16.8438 -23.5996C15.3789 -24.1855 13.6211 -24.1855 12.0098 -23.5996ZM14.5 -14.5176L42.625 -3.9707V-3.82422L14.5 7.60156L-13.625 -3.82422V-3.9707L14.5 -14.5176ZM19.1875 37.6309V15.8047L42.625 6.2832V25.9121L19.1875 37.6309Z" fill="#FFBF50" fill-opacity="0.2"/>
</svg>
