<svg width="75" height="441" fill="none" xmlns="http://www.w3.org/2000/svg"><path d="M35.01 367.4L4.54 378.826C1.758 379.852 0 382.488 0 385.418v32.959c0 2.637 1.465 5.127 3.809 6.299l30.468 15.234c2.051 1.026 4.248 1.026 6.3 0l30.468-15.234c2.344-1.172 3.808-3.662 3.808-6.299v-32.959c0-2.93-1.757-5.566-4.54-6.592L39.843 367.4c-1.464-.586-3.222-.586-4.833 0zm2.49 9.082l28.125 10.547v.147L37.5 398.602 9.375 387.176v-.147L37.5 376.482zm4.688 52.149v-21.826l23.437-9.522v19.629l-23.438 11.719zM35.01 1.4L4.54 12.826C1.758 13.852 0 16.488 0 19.418v32.959c0 2.637 1.465 5.127 3.809 6.299L34.277 73.91c2.051 1.026 4.248 1.026 6.3 0l30.468-15.234c2.344-1.172 3.808-3.662 3.808-6.299V19.418c0-2.93-1.757-5.566-4.54-6.592L39.843 1.4c-1.464-.586-3.222-.586-4.833 0zm2.49 9.082L65.625 21.03v.147L37.5 32.602 9.375 21.176v-.147L37.5 10.482zm4.688 52.149V40.805l23.437-9.522v19.63L42.187 62.63z" fill="#1F1915" fill-opacity=".2"/></svg>